#!OML:ASF E:/inclinewalkrobotboard/Project1/Captureday1/Session1/subject1.ASF
:FULLY-SPECIFIED
:DEGREES
76
root 0 0 0 1.845629151814979 -3.8935359346395892 2.1758708649993466
lowerback 11.986109459243208 1.1645258809510672 -0.09665139806240297
upperback -4.457530949728201 1.463978796497324 -0.8550634326219745
thorax -11.566866569011168 0.6779665904289278 -1.1345857177259682
lowerneck -6.239278216399463 1.753245932162087 4.834035619189529
upperneck 18.17588810833332 3.28692021288463 -8.489916031351422
head 6.6974249173471225 1.2230277114601433 -3.293655590265433
rclavicle -2.15965345108618E-15 -1.0950403935449834E-15
rhumerus 23.256404057206254 17.836821651496884 -48.496161339026166
rradius 74.8969731467818
rwrist 25.818965032135008
rhand -34.81894092021538 -58.10359917964397
rfingers 7.12502
rthumb -7.962046944388716 -88.01510408909078
lclavicle -1.1176464906603517E-15 -8.345567298748816E-16
lhumerus 22.43657004555677 -14.543803244946343 45.763581491937806
lradius 71.34068443411462
lwrist -21.389157714073868
lhand -45.272634272621545 -69.0278595016342
lfingers 7.125020000000012
lthumb -18.047197485310114 -39.780704921215275
rfemur -24.526041752041863 -0.780095977267957 18.61277646877746
rtibia 44.882710903249055
rfoot -33.050611802357864 -17.877145799278924
rtoes -23.030706302420032
lfemur -26.582653434826902 1.8311454858008678 -15.402373531773094
ltibia 45.025449423877774
lfoot -32.20609733141797 3.3147553789049864
ltoes -21.504996155149207
77
root 0 0 0 1.8450745096060497 -3.8947911375034034 2.175295169725772
lowerback 11.986067158927412 1.1653799756831598 -0.09536874519220861
upperback -4.457593261428738 1.465268983865434 -0.8554067577804009
thorax -11.566838297747726 0.6785338761057016 -1.1359447767578748
lowerneck -6.238807394686825 1.7526826123750252 4.833654331201815
upperneck 18.177056729789975 3.2861224389430594 -8.489230347088622
head 6.697777168852063 1.2226943461157638 -3.2934289437813833
rclavicle -2.152202050029432E-15 -1.1020335946960066E-15
rhumerus 23.261555711933823 17.844497164071953 -48.50103379844505
rradius 74.90198937932254
rwrist 25.813492746197745
rhand -34.819224101183444 -58.104208932206134
rfingers 7.12502
rthumb -7.9619750489213 -88.01486039069454
lclavicle -1.1172885045400518E-15 -8.413312832420532E-16
lhumerus 22.4350961399224 -14.544815934946595 45.76584516614595
lradius 71.34014189966936
lwrist -21.386485414640752
lhand -45.27245952536279 -69.02550520843506
lfingers 7.125020000000012
lthumb -18.046611282384582 -39.7773022089729
rfemur -24.512623244897064 -0.7809351225552472 18.60876256452886
rtibia 44.894998396814394
rfoot -33.03650113898994 -17.87552646936468
rtoes -23.04249125819223
lfemur -26.59519919103613 1.8312616871837717 -15.406061157739767
ltibia 45.00580744853893
lfoot -32.23086430893044 3.33019248579362
ltoes -21.498927231713914
78
root 0 0 0 1.845214329975113 -3.896034301597389 2.1755027673540095
lowerback 11.986189550970543 1.1660349375565005 -0.09500277268583779
upperback -4.457472698927783 1.4661527933802496 -0.8558338820565167
thorax -11.56679196626499 0.6789551042716526 -1.1367069031744987
lowerneck -6.239200092477753 1.752384818166153 4.833405349681438
upperneck 18.177317830495575 3.2856270259812 -8.48871748645822
head 6.697938482458731 1.2224959599358 -3.2932735617993885
rclavicle -2.1511180170518387E-15 -1.1023486572609074E-15
rhumerus 23.26401074912276 17.847850123736087 -48.503156895172935
rradius 74.90404545986631
rwrist 25.81114893197163
rhand -34.81924063454164 -58.10404262406069
rfingers 7.12502
rthumb -7.962017484147863 -88.01463033916336
lclavicle -1.1157465598019524E-15 -8.417607508830787E-16
lhumerus 22.43474612856435 -14.544154152537343 45.76565728671443
lradius 71.33966847306755
lwrist -21.38684020964763
lhand -45.27238610598296 -69.02572537240151
lfingers 7.125020000000012
lthumb -18.046545213645278 -39.77762779112082
rfemur -24.513242474001785 -0.783452316065282 18.60529514080038
rtibia 44.9107626906016
rfoot -33.027892501400295 -17.87515887760288
rtoes -23.041403376387
lfemur -26.59552944701114 1.829733642016437 -15.413198218462169
ltibia 44.97617842947229
lfoot -32.25673971773239 3.347333691178891
ltoes -21.494027129582918
79
root 0 0 0 1.8453509957295346 -3.896149410885123 2.176868447289845
lowerback 11.986205994787706 1.1660140776721661 -0.09607543759186832
upperback -4.4574406188219164 1.4659532907548245 -0.8562092861102256
thorax -11.566742967213127 0.6788953530602859 -1.1364450191088047
lowerneck -6.239318718655761 1.75227582155542 4.8331599657049775
upperneck 18.177671859523528 3.285478619198636 -8.48844926617647
head 6.69808079963772 1.2224340316610949 -3.2931823237914655
rclavicle -2.150458841916989E-15 -1.1017645027694098E-15
rhumerus 23.265202292210105 17.849671426455437 -48.50444019105567
rradius 74.90503074703182
rwrist 25.809745035794677
rhand -34.819194000579294 -58.103717589412554
rfingers 7.12502
rthumb -7.9619682398373275 -88.01418914698607
lclavicle -1.115291101328707E-15 -8.406267397921953E-16
lhumerus 22.434363626136125 -14.543553605780087 45.765536172838814
lradius 71.33922239455438
lwrist -21.387098632850517
lhand -45.272383758567294 -69.02617987572286
lfingers 7.125020000000012
lthumb -18.04653967696007 -39.77794286827235
rfemur -24.52056966690331 -0.788058249059401 18.59853801968533
rtibia 44.93544398406189
rfoot -33.01530404851631 -17.87445096616866
rtoes -23.040307145554326
lfemur -26.579877657020425 1.8247852945880068 -15.427549530524013
ltibia 44.925104411241776
lfoot -32.285636733615426 3.3658603433835266
ltoes -21.487720726770544
80
root 0 0 0 1.8458638189176946 -3.894833668960808 2.175253084103043
lowerback 11.986450875267948 1.165048250270567 -0.09567744656656418
upperback -4.45740391494987 1.4647963043547774 -0.8551687080822922
thorax -11.56694122440432 0.6783406602254363 -1.1353585446374446
lowerneck -6.239737031138355 1.7530078023508489 4.8338873234823145
upperneck 18.176229867567532 3.2865635263304354 -8.48967852258868
head 6.69762160724686 1.2228680353871888 -3.293591902599567
rclavicle -2.1604683709058644E-15 -1.0951634951163128E-15
rhumerus 23.25815708553928 17.839056717857616 -48.49732967476638
rradius 74.89841518496044
rwrist 25.81761913856868
rhand -34.81905158932829 -58.10379628894778
rfingers 7.12502
rthumb -7.962160755585314 -88.01529733062556
lclavicle -1.118140857699132E-15 -8.346985448394504E-16
lhumerus 22.436312728652908 -14.543207246065244 45.76337250884809
lradius 71.34033977247924
lwrist -21.389516893238365
lhand -45.272651535270256 -69.02845817988157
lfingers 7.125020000000012
lthumb -18.047216208537428 -39.7812967670404
rfemur -24.52175081778597 -0.7789076886648232 18.61523526824061
rtibia 44.87639521269202
rfoot -33.05650180114324 -17.877772627726852
rtoes -23.03228031875571
lfemur -26.593677156303617 1.8316482157982672 -15.399048557711069
ltibia 45.02644766713963
lfoot -32.20700218735086 3.318379650621833
ltoes -21.501591369158128
